<?xml version="1.0" encoding="UTF-8" standalone="no"?>
<!-- Created with Inkscape (http://www.inkscape.org/) -->

<svg
   xmlns:dc="http://purl.org/dc/elements/1.1/"
   xmlns:cc="http://creativecommons.org/ns#"
   xmlns:rdf="http://www.w3.org/1999/02/22-rdf-syntax-ns#"
   xmlns:svg="http://www.w3.org/2000/svg"
   xmlns="http://www.w3.org/2000/svg"
   xmlns:sodipodi="http://sodipodi.sourceforge.net/DTD/sodipodi-0.dtd"
   xmlns:inkscape="http://www.inkscape.org/namespaces/inkscape"
   version="1.1"
   id="svg3767"
   xml:space="preserve"
   width="687.33887"
   height="772.47998"
   viewBox="0 0 687.33885 772.47997"
   sodipodi:docname="Final File 013173-02.eps"
   inkscape:version="0.92.5 (2060ec1f9f, 2020-04-08)"><metadata
     id="metadata3773"><rdf:RDF><cc:Work
         rdf:about=""><dc:format>image/svg+xml</dc:format><dc:type
           rdf:resource="http://purl.org/dc/dcmitype/StillImage" /><dc:title></dc:title></cc:Work></rdf:RDF></metadata><defs
     id="defs3771" /><sodipodi:namedview
     pagecolor="#ffffff"
     bordercolor="#666666"
     borderopacity="1"
     objecttolerance="10"
     gridtolerance="10"
     guidetolerance="10"
     inkscape:pageopacity="0"
     inkscape:pageshadow="2"
     inkscape:window-width="2048"
     inkscape:window-height="1092"
     id="namedview3769"
     showgrid="false"
     inkscape:zoom="0.34199999"
     inkscape:cx="-170.9527"
     inkscape:cy="386.24002"
     inkscape:window-x="0"
     inkscape:window-y="0"
     inkscape:window-maximized="1"
     inkscape:current-layer="g3775" /><g
     id="g3775"
     inkscape:groupmode="layer"
     inkscape:label="ink_ext_XXXXXX"
     transform="matrix(1.3333333,0,0,-1.3333333,-989.66618,1719.5733)"><g
       id="g3777"
       transform="scale(0.1)"><path
         d="m 12269.2,8787.5 c -154.8,-270.6 -641,-311.3 -1267,-154.3 41.3,196.1 74,405.6 96.8,625.5 3.3,32.5 6.3,65.4 9.2,98.4 27.4,19.1 54.7,38.1 81.5,57.4 204.2,146.8 390.7,297.9 555.9,449.8 -58.2,61.3 -120.5,122.3 -186.4,183.1 -106.7,-99.6 -224.1,-199.8 -351.1,-298.7 -25.6,-20 -51.8,-39.9 -78.2,-59.7 1.4,32.4 2.7,64.9 3.7,97.6 1.9,70.5 3,141.5 3,213.3 0,171.4 -5.9,339.3 -17.1,502.5 159.5,-115.8 306.6,-234.1 438.8,-352.4 46.6,-41.6 91.3,-83.3 134.2,-124.8 10.9,-10.6 21.8,-21.3 32.5,-31.9 10.3,-10.2 20.4,-20.4 30.6,-30.6 7.5,-7.8 15.1,-15.5 22.7,-23.2 13.4,-13.9 26.7,-27.7 39.6,-41.5 l 3.9,-4.2 c 10.6,-11.2 21,-22.4 31.1,-33.5 9.6,-10.5 18.9,-20.9 28.2,-31.3 -26.1,-36.7 -41.6,-81.4 -41.6,-129.8 0,-123.7 100.3,-224.1 224.1,-224.1 27.2,0 53.2,5.2 77.4,14.1 174.6,-278.1 228.8,-525.7 128.2,-701.7 z M 10869.8,9595 c -1.9,-32.3 -4.3,-64.1 -6.6,-95.9 -26.1,-17.6 -52.4,-35.1 -79.1,-52.6 -110.8,-72.4 -226.4,-143.1 -346.1,-211.7 -117.6,-67.3 -234.9,-130 -351.3,-187.9 -28.9,-14.4 -57.8,-28.4 -86.5,-42.2 -28.98,13.9 -57.96,28 -87.05,42.5 -116.24,57.7 -233.53,120.3 -350.98,187.6 -207.41,118.7 -402.03,244.2 -581.36,372.9 -7.28,127.9 -11.17,258.8 -11.17,392.2 0,166.1 5.9,328.5 17.08,485.8 2.29,32.8 4.9,65.2 7.68,97.5 26.39,18.3 53,36.5 79.99,54.6 131.21,88 269.51,173.8 414.02,256.5 141.63,81 282.96,155.4 422.63,222.8 29.72,14.4 59.35,28.4 88.93,42.2 29.63,-13.8 59.33,-27.8 89.13,-42.2 139.7,-67.4 281,-141.8 422.5,-222.8 115.8,-66.2 227.6,-134.6 335,-204.5 22.7,-219.6 35,-450.9 35,-689.9 0,-137.8 -4.1,-273 -11.8,-404.9 z m -51.8,-518.6 c -18.5,-129.4 -40.9,-253.7 -66.5,-372 -116.5,36.7 -236.3,79.3 -358.9,128 -30.4,12.1 -60.9,24.6 -91.6,37.4 28.9,15 57.8,30 86.8,45.6 58.9,31.6 117.9,64.2 176.8,98.1 62.6,35.8 124.3,72.2 184.7,109.3 27.5,16.7 54.5,33.8 81.5,50.7 -4.1,-32.6 -8.2,-65.1 -12.8,-97.1 z m -1210.48,-244 c -146.62,-58.3 -289.62,-108.1 -427.17,-149.2 -88.27,-26.3 -174.28,-49.1 -257.57,-68.2 -589.65,-135.4 -1043.41,-87.2 -1192.01,172.5 -143.89,251.5 28.27,648.9 416.44,1073.1 87.52,95.5 185.77,192.2 293.99,288.8 110.04,98.7 230.22,197.1 359.45,294.2 26.2,19.7 52.89,39.3 79.84,58.8 -2.23,-32.5 -4.3,-65.2 -6.08,-98.1 -7.25,-132.1 -11.03,-267.1 -11.03,-404.4 0,-105 2.3,-208.7 6.59,-310.8 -156.95,118.1 -300.72,238.3 -428.92,358.1 -66.05,-60.7 -128.48,-121.9 -186.67,-182.9 186.89,-171.7 400.99,-342.6 637.23,-507.2 20.3,-228 51.08,-445.8 91.18,-649.9 35.98,9 72.71,18.8 110.04,29.2 -35.61,169.4 -64.19,350.9 -84.88,541.4 136.1,-90.8 278.82,-179.2 427.55,-264.3 58.8,-33.7 117.6,-66.4 176.4,-97.8 29.15,-15.7 58.25,-30.8 87.35,-45.9 -30.71,-12.8 -61.32,-25.3 -91.73,-37.4 z m -588.3,1987.7 c 29.58,236.4 71.58,457.4 123.9,657.5 201.1,-54.4 415.44,-128.4 637.02,-221.1 30.43,-12.8 61.01,-26 91.68,-39.4 -29.52,-14.3 -59.07,-28.9 -88.67,-43.8 -115.32,-58 -231.41,-120.3 -347.5,-186.8 -119.56,-68.5 -235.35,-138.9 -346.74,-211.3 -27.29,-17.6 -54.24,-35.4 -81.01,-53.2 3.57,32.9 7.31,65.7 11.32,98.1 z m 271.14,1098.4 c 123.74,0 224.06,100.3 224.06,224.1 0,46.9 -14.47,90.4 -39.12,126.4 134.17,193.2 287.44,302.8 450.25,302.8 299.45,0 566.65,-370.3 741.85,-950 24.8,-81.8 47.8,-167.6 68.5,-257.2 39.1,-167.4 71.1,-347.9 95.1,-538.2 -86.6,54.5 -175.5,107.9 -266.7,160.1 -116.1,66.4 -232.2,128.7 -347.5,186.7 -29.6,14.9 -59.2,29.5 -88.8,43.9 30.6,13.4 61.1,26.5 91.4,39.2 146.3,61.2 289.6,114.3 427.9,159 -9.4,37.5 -19.2,74.3 -29.3,110.1 -171.1,-57.8 -347.8,-126.8 -527.5,-206.6 -30.1,-13.4 -60.3,-27.1 -90.5,-41 -30.32,14 -60.6,27.7 -90.78,41.1 -253.37,112.4 -500.55,203.4 -734.73,271.9 34.61,118.1 73.04,227.7 114.69,327.8 0.4,0 0.78,-0.1 1.18,-0.1 z M 12253.6,9580.9 c 21.4,34.4 34,74.8 34,118.3 0,123.8 -100.3,224.1 -224,224.1 -30.1,0 -58.7,-6 -84.9,-16.8 -234.1,247.2 -528.8,498.5 -870.2,736.3 -114.8,1290.5 -567.5,2254 -1108.59,2254 -245.53,0 -472.87,-198.6 -658.68,-536.2 -16.37,3.8 -33.35,6.1 -50.87,6.1 -123.75,0 -224.07,-100.4 -224.07,-224.1 0,-76.3 38.19,-143.6 96.42,-184 -37.82,-105 -72.65,-217.1 -104.13,-335.4 -768.52,204.2 -1378.47,155.2 -1572.83,-184.6 -187.13,-326.9 52.31,-848.4 573.63,-1385 60.92,60.9 125.46,121.7 192.73,181.7 -410.09,436.5 -595.1,848.6 -447.42,1106.6 151.23,264.4 618.95,309.4 1224.42,164.7 -56.3,-235.2 -99.82,-492.4 -128.09,-765.4 -3.4,-32.6 -6.51,-65.4 -9.47,-98.5 -27.34,-19 -54.49,-38.1 -81.23,-57.3 -161.74,-116.3 -312.43,-235.4 -450.13,-355.3 -108.53,-94.4 -209.2,-189.5 -300.95,-284 -521.18,-536.4 -760.62,-1057.8 -573.63,-1384.6 188.18,-328.9 765.14,-385.6 1498.39,-204 85.25,21 172.77,45.3 261.95,72.8 212.99,65.8 435.93,149.7 663.87,250.8 29.97,13.3 60.09,27.2 90.18,41.1 30.3,-14 60.5,-27.9 90.6,-41.3 204.6,-90.7 405.2,-167.5 598.2,-229.8 -174.5,-621.3 -451.5,-1022.9 -763.25,-1022.9 -184.68,0 -357.06,141 -503.22,385 40.03,40.5 64.8,96.1 64.8,157.5 0,123.8 -100.32,224.1 -224.07,224.1 -6.05,0 -11.99,-0.5 -17.91,-0.9 -16.85,45.9 -33.09,93.5 -48.63,142.7 -39.75,-11.6 -79.05,-22.7 -117.9,-32.8 15.16,-53.4 31.11,-105.3 47.62,-155.9 -52.98,-41 -87.25,-105 -87.25,-177.2 0,-123.7 100.33,-224 224.07,-224 7.49,0 14.89,0.4 22.19,1.1 195.21,-403 443.89,-644.6 714.66,-644.6 391.69,0 737.09,505.1 941.49,1273.5 768.6,-204.2 1378.5,-155.2 1573,184.8 144,251.7 35,618.9 -260.8,1019.4"
         style="fill:#5181ca;fill-opacity:1;fill-rule:nonzero;stroke:none"
         id="path3779"
         inkscape:connector-curvature="0" /><path
         d="m 12195.3,11341.9 c 147.5,-258 -37.2,-669.6 -447,-1106.2 67.3,-60.1 131.5,-120.9 192.7,-181.8 521.1,536.4 760.4,1057.9 573.4,1384.7 -188.2,328.8 -765,385.3 -1498.3,203.8 10.3,-38.9 20.3,-78.5 30,-118.5 568.8,123.3 1004.2,71.3 1149.2,-182"
         style="fill:#5181ca;fill-opacity:1;fill-rule:nonzero;stroke:none"
         id="path3781"
         inkscape:connector-curvature="0" /><path
         d="m 10303.5,10041.9 c -55.8,0 -101,45.2 -101,101 0,55.7 45.2,100.9 101,100.9 55.7,0 100.9,-45.2 100.9,-100.9 0,-55.8 -45.2,-101 -100.9,-101 z m -335.43,0 c -55.78,0 -100.98,45.2 -100.98,101 0,55.7 45.2,100.9 100.98,100.9 55.73,0 100.93,-45.2 100.93,-100.9 0,-55.8 -45.2,-101 -100.93,-101 z m -335.42,0 c -55.77,0 -101.13,45.2 -101.13,101 0,55.7 45.36,100.9 101.13,100.9 55.62,0 100.97,-45.2 100.97,-100.9 0,-55.8 -45.35,-101 -100.97,-101 z m 291.43,718.6 c -305.79,-21 -553.38,-268.8 -574.54,-574.4 -24.94,-362.3 261.5,-664 618.53,-664 0.6,0 180.43,-104 277.83,-160.4 27.2,-15.7 61.1,3.9 61.1,35.4 v 177.1 c 0,29.9 14.5,57.8 38.2,76 147.5,113.4 242.7,291.5 242.7,491.9 0,356.9 -301.7,643.5 -663.82,618.4"
         style="fill:#5181ca;fill-opacity:1;fill-rule:nonzero;stroke:none"
         id="path3783"
         inkscape:connector-curvature="0" /></g></g></svg>